# Blender 3.3.1
# www.blender.org
mtllib unko.mtl
o Cube
v -5.212653 -5.212653 5.212653
v -5.212653 -5.212653 5.212653
v -5.212653 -5.212653 -5.212653
v -5.212653 -5.212653 5.212653
v 5.212653 -5.212653 5.212653
v 4.378915 4.378915 -5.212653
v 5.212653 -5.212653 -5.212653
v 5.212653 5.212653 5.212653
v -5.212653 -5.212653 -5.212653
v 5.212653 -5.212653 -5.212653
v -5.212653 -5.212653 5.212653
v 5.212653 -5.212653 5.212653
v -5.212653 -5.212653 5.212653
v 5.212653 -5.212653 -5.212653
v -5.212653 -5.212653 -5.212653
v 5.212653 -5.212653 5.212653
v -5.212653 -5.212653 -5.212653
v 5.212653 -5.212653 -5.212653
v -5.212653 -5.212653 5.212653
v 5.212653 -5.212653 5.212653
v -5.212653 -5.212653 5.212653
v 5.212653 5.212653 -5.212653
v -4.378915 4.378915 -5.212653
v 5.212653 -5.212653 5.212653
v -5.212653 -5.212653 -5.212653
v 5.212653 -5.212653 -5.212653
v -5.212653 -5.212653 5.212653
v 5.212653 -5.212653 5.212653
v 5.212653 5.212653 -5.212653
v 5.212653 -5.212653 -5.212653
v -5.212653 -5.212653 -5.212653
v 5.212653 5.212653 5.212653
v 3.471913 3.471913 4.051145
v 3.471913 -3.471913 4.051145
v -3.471913 -3.471913 4.051145
v -3.471913 3.471913 4.051145
v 5.212653 5.212653 5.212653
v 5.212653 5.212653 -5.212653
v 5.212653 -5.212653 -5.212653
v 5.212653 -5.212653 5.212653
v 5.212653 5.212653 5.212653
v 5.212653 5.212653 -5.212653
v -5.212653 -5.212653 5.212653
v -5.212653 -5.212653 5.212653
v 5.212653 -5.212653 -5.212653
v -5.212653 -5.212653 -5.212653
v 5.212653 -5.212653 5.212653
v 4.378915 4.378915 -5.212653
v 5.212653 5.212653 -5.212653
v 5.212653 5.212653 5.212653
v -4.378915 4.378915 -5.212653
v 4.378915 4.378915 4.051145
v 4.378915 -4.378915 4.051145
v -4.378915 -4.378915 4.051145
v -4.378915 4.378915 4.051145
v 5.212653 5.212653 5.212653
v 5.212653 5.212653 -5.212653
v 5.212653 -5.212653 -5.212653
v 5.212653 -5.212653 5.212653
v 5.212653 -5.212653 -5.212653
v -5.212653 -5.212653 -5.212653
v -5.212653 5.212653 5.212653
v 5.212653 -5.212653 5.212653
v 4.378915 4.378915 -5.212653
v 5.212653 5.212653 -5.212653
v 5.212653 5.212653 5.212653
v -4.378915 4.378915 -5.212653
v 4.378915 4.378915 4.051145
v 4.378915 -4.378915 4.051145
v -4.378915 -4.378915 4.051145
v -4.378915 4.378915 4.051145
v 5.212653 5.212653 5.212653
v 5.212653 5.212653 -5.212653
v 5.212653 -5.212653 -5.212653
v 5.212653 -5.212653 5.212653
v 5.212653 -5.212653 -5.212653
v -5.212653 -5.212653 -5.212653
v 5.212653 -5.212653 5.212653
v 4.378915 4.378915 -5.212653
v -4.378915 4.378915 -5.212653
v 4.378915 4.378915 4.051145
v 4.378915 -4.378915 4.051145
v -4.378915 -4.378915 4.051145
v -4.378915 4.378915 4.051145
v 5.212653 5.212653 5.212653
v 5.212653 5.212653 -5.212653
v 5.212653 -5.212653 -5.212653
v 5.212653 -5.212653 5.212653
v 5.212653 -5.212653 -5.212653
v -5.212653 -5.212653 -5.212653
v -5.212653 5.212653 -5.212653
v 5.212653 -5.212653 5.212653
v 4.378915 4.378915 -5.212653
v 4.378915 -4.378915 -5.212653
v -4.378915 -4.378915 -5.212653
v -4.378915 4.378915 -5.212653
v 4.378915 4.378915 4.051145
v 4.378915 -4.378915 4.051145
v -4.378915 -4.378915 4.051145
v -4.378915 4.378915 4.051145
v 5.212653 5.212653 5.212653
v 5.212653 5.212653 -5.212653
v 5.212653 -5.212653 -5.212653
v 5.212653 -5.212653 5.212653
v 4.378915 4.378915 4.051145
v 4.378915 -4.378915 4.051145
v -4.378915 -4.378915 4.051145
v -4.378915 4.378915 4.051145
vn -0.0000 -1.0000 -0.0000
vn -0.0000 1.0000 -0.0000
vn -1.0000 -0.0000 -0.0000
vn -0.0000 -0.0000 -1.0000
vn 1.0000 -0.0000 -0.0000
vt 0.625000 0.500000
vt 0.625000 0.500000
vt 0.625000 0.750000
vt 0.625000 0.500000
vt 0.625000 0.250000
vt 0.394993 0.980007
vt 0.625000 0.000000
vt 0.625000 1.000000
vt 0.375000 0.250000
vt 0.125000 0.500000
vt 0.625000 0.750000
vt 0.625000 0.000000
vt 0.625000 1.000000
vt 0.625000 0.500000
vt 0.625000 0.250000
vt 0.625000 0.500000
vt 0.625000 0.000000
vt 0.625000 1.000000
vt 0.625000 0.750000
vt 0.625000 0.250000
vt 0.625000 0.750000
vt 0.625000 1.000000
vt 0.625000 0.000000
vt 0.625000 0.500000
vt 0.625000 0.250000
vt 0.625000 0.500000
vt 0.375000 1.000000
vt 0.125000 0.750000
vt 0.394993 0.769993
vt 0.625000 0.250000
vt 0.625000 0.750000
vt 0.625000 1.000000
vt 0.625000 0.000000
vt 0.875000 0.750000
vt 0.625000 0.500000
vt 0.875000 0.500000
vt 0.625000 0.250000
vt 0.375000 1.000000
vt 0.125000 0.750000
vt 0.625000 0.000000
vt 0.625000 1.000000
vt 0.625000 0.750000
vt 0.375000 0.250000
vt 0.125000 0.500000
vt 0.416743 0.958257
vt 0.583257 0.958257
vt 0.583257 0.791743
vt 0.416743 0.791743
vt 0.125000 0.500000
vt 0.375000 0.250000
vt 0.375000 1.000000
vt 0.125000 0.750000
vt 0.625000 1.000000
vt 0.625000 0.000000
vt 0.625000 0.250000
vt 0.375000 0.250000
vt 0.125000 0.500000
vt 0.125000 0.750000
vt 0.375000 1.000000
vt 0.625000 0.500000
vt 0.625000 0.500000
vt 0.625000 1.000000
vt 0.625000 0.750000
vt 0.625000 0.250000
vt 0.394993 0.980007
vt 0.375000 1.000000
vt 0.125000 0.750000
vt 0.375000 0.250000
vt 0.125000 0.500000
vt 0.394993 0.769993
vt 0.000000 0.000000
vt 0.394993 0.980007
vt 0.000000 0.000000
vt 0.605007 0.980007
vt 0.000000 0.000000
vt 0.605007 0.769993
vt 0.000000 0.000000
vt 0.394993 0.769993
vt 0.375000 0.250000
vt 0.125000 0.500000
vt 0.125000 0.750000
vt 0.375000 1.000000
vt 0.625000 0.000000
vt 0.625000 1.000000
vt 0.625000 0.250000
vt 0.625000 1.000000
vt 0.625000 0.750000
vt 0.375000 0.500000
vt 0.625000 0.250000
vt 0.394993 0.980007
vt 0.375000 1.000000
vt 0.125000 0.750000
vt 0.375000 0.250000
vt 0.125000 0.500000
vt 0.394993 0.769993
vt 0.394993 0.980007
vt 0.605007 0.980007
vt 0.605007 0.769993
vt 0.394993 0.769993
vt 0.375000 0.250000
vt 0.125000 0.500000
vt 0.125000 0.750000
vt 0.375000 1.000000
vt 0.625000 0.000000
vt 0.625000 1.000000
vt 0.625000 0.250000
vt 0.625000 1.000000
vt 0.625000 0.750000
vt 0.625000 0.250000
vt 0.394993 0.980007
vt 0.394993 0.769993
vt 0.394993 0.980007
vt 0.605007 0.980007
vt 0.605007 0.769993
vt 0.394993 0.769993
vt 0.375000 0.250000
vt 0.125000 0.500000
vt 0.375000 1.000000
vt 0.125000 0.750000
vt 0.625000 1.000000
vt 0.625000 0.000000
vt 0.625000 0.250000
vt 0.625000 1.000000
vt 0.625000 0.750000
vt 0.375000 0.750000
vt 0.625000 0.250000
vt 0.394993 0.980007
vt 0.605007 0.980007
vt 0.605007 0.769993
vt 0.394993 0.769993
vt 0.394993 0.980007
vt 0.605007 0.980007
vt 0.605007 0.769993
vt 0.394993 0.769993
vt 0.125000 0.500000
vt 0.375000 0.250000
vt 0.375000 1.000000
vt 0.125000 0.750000
vt 0.375000 0.000000
vt 0.625000 1.000000
vt 0.625000 0.000000
vt 0.625000 0.250000
vt 0.000000 0.000000
vt 0.394993 0.980007
vt 0.000000 0.000000
vt 0.605007 0.980007
vt 0.000000 0.000000
vt 0.605007 0.769993
vt 0.000000 0.000000
vt 0.394993 0.769993
s 0
usemtl Material
f 5/5/1 12/15/1 10/12/1 7/7/1
f 3/3/1 15/19/1 14/18/1 7/8/1
f 5/5/1 16/20/1 13/16/1 1/1/1
f 10/13/1 18/22/1 17/21/1 9/11/1
f 12/15/1 20/25/1 18/23/1 10/12/1
f 1/1/1 13/16/1 15/19/1 3/3/1
f 7/7/1 14/17/1 16/20/1 5/5/1
f 3/3/1 9/11/1 11/14/1 1/1/1
f 1/1/1 11/14/1 12/15/1 5/5/1
f 7/8/1 10/13/1 9/11/1 3/3/1
f 16/20/1 24/30/1 2/2/1 13/16/1
f 18/22/1 26/32/1 25/31/1 17/21/1
f 20/25/1 28/37/1 26/33/1 18/23/1
f 13/16/1 2/2/1 31/42/1 15/19/1
f 14/17/1 30/40/1 24/30/1 16/20/1
f 17/21/1 25/31/1 27/35/1 19/24/1
f 11/14/1 19/24/1 20/25/1 12/15/1
f 9/11/1 17/21/1 19/24/1 11/14/1
f 6/6/1 105/144/1 108/150/1 23/29/1
f 29/38/1 38/51/1 39/53/1 30/41/1
f 39/54/1 58/83/1 59/85/1 40/55/1
f 8/9/1 41/56/1 47/64/1 24/30/1
f 40/55/1 59/85/1 56/79/1 37/50/1
f 27/35/1 25/31/1 26/34/1 28/36/1
f 15/19/1 31/42/1 30/41/1 14/18/1
f 19/24/1 27/35/1 28/37/1 20/25/1
f 23/29/1 51/70/1 48/65/1 6/6/1
f 106/146/1 53/74/1 54/76/1 107/148/1
f 38/51/1 57/82/1 58/84/1 39/53/1
f 30/41/1 45/62/1 42/59/1 29/38/1
f 107/147/1 54/75/1 55/77/1 108/149/1
f 24/30/1 47/64/1 44/61/1 2/2/1
f 37/49/1 56/80/1 57/81/1 38/52/1
f 105/143/1 52/71/1 53/73/1 106/145/1
f 8/10/1 37/49/1 38/52/1 29/39/1
f 30/40/1 39/54/1 40/55/1 24/30/1
f 24/30/1 40/55/1 37/50/1 8/9/1
f 48/65/1 64/90/1 68/96/1 52/72/1
f 42/58/1 22/28/1 32/44/1 41/57/1
f 55/78/1 71/99/1 67/95/1 51/70/1
f 44/61/1 4/4/1 61/87/1 46/63/1
f 58/83/1 74/104/1 75/106/1 59/85/1
f 51/70/1 67/95/1 64/90/1 48/65/1
f 53/74/1 69/97/1 70/98/1 54/76/1
f 46/63/1 61/87/1 60/86/1 45/62/1
f 59/85/1 75/106/1 72/100/1 56/79/1
f 54/76/1 70/98/1 71/99/1 55/78/1
f 41/56/1 32/43/1 63/89/1 47/64/1
f 108/150/1 55/78/1 51/70/1 23/29/1
f 31/42/1 46/63/1 45/62/1 30/41/1
f 6/6/1 48/65/1 52/72/1 105/144/1
f 2/2/1 44/61/1 46/63/1 31/42/1
f 29/39/1 42/58/1 41/57/1 8/10/1
f 74/104/1 87/121/1 88/122/1 75/106/1
f 67/95/1 80/111/1 79/110/1 64/90/1
f 69/97/1 82/113/1 83/114/1 70/98/1
f 61/87/1 77/108/1 76/107/1 60/86/1
f 75/106/1 88/122/1 85/116/1 72/100/1
f 70/98/1 83/114/1 84/115/1 71/99/1
f 32/43/1 50/68/1 78/109/1 63/89/1
f 73/103/1 86/118/1 87/120/1 74/105/1
f 68/96/1 81/112/1 82/113/1 69/97/1
f 72/101/1 85/117/1 86/119/1 73/102/1
f 60/86/1 76/107/1 49/66/1 22/27/1
f 47/64/1 63/89/1 4/4/1 44/61/1
f 45/62/1 60/86/1 22/27/1 42/59/1
f 56/80/1 72/101/1 73/102/1 57/81/1
f 52/72/1 68/96/1 69/97/1 53/74/1
f 57/82/1 73/103/1 74/105/1 58/84/1
f 82/113/1 98/132/1 99/133/1 83/114/1
f 77/108/1 90/124/1 89/123/1 76/107/1
f 88/122/1 104/142/1 101/136/1 85/116/1
f 83/114/1 99/133/1 100/134/1 84/115/1
f 50/68/1 66/93/1 92/126/1 78/109/1
f 86/118/1 102/137/1 103/140/1 87/120/1
f 81/112/1 97/131/1 98/132/1 82/113/1
f 85/117/1 101/135/1 102/138/1 86/119/1
f 76/107/1 89/123/1 65/91/1 49/66/1
f 78/109/1 92/126/1 21/26/1 43/60/1
f 79/110/1 93/127/1 97/131/1 81/112/1
f 4/4/1 43/60/1 77/108/1 61/87/1
f 71/99/1 84/115/1 80/111/1 67/95/1
f 22/28/1 49/67/1 50/69/1 32/44/1
f 64/90/1 79/110/1 81/112/1 68/96/1
f 63/89/1 78/109/1 43/60/1 4/4/1
f 66/94/2 65/92/2 91/125/2 62/88/2
f 62/88/3 91/125/3 90/124/3 21/26/3
f 93/127/4 65/91/4 89/123/4 94/128/4
f 95/129/4 90/124/4 91/125/4 96/130/4
f 94/128/4 89/123/4 90/124/4 95/129/4
f 96/130/4 91/125/4 65/91/4 93/127/4
f 96/130/5 100/134/5 99/133/5 95/129/5
f 95/129/2 99/133/2 98/132/2 94/128/2
f 94/128/3 98/132/3 97/131/3 93/127/3
f 102/139/5 101/136/5 104/142/5 103/141/5
f 80/111/1 96/130/1 93/127/1 79/110/1
f 87/121/1 103/141/1 104/142/1 88/122/1
f 43/60/1 21/26/1 90/124/1 77/108/1
f 84/115/1 100/134/1 96/130/1 80/111/1
f 49/67/1 65/92/1 66/94/1 50/69/1
f 33/45/4 105/144/4 106/146/4 34/46/4
f 35/47/4 107/148/4 108/150/4 36/48/4
f 34/46/4 106/146/4 107/148/4 35/47/4
f 36/48/4 108/150/4 105/144/4 33/45/4
